<svg xmlns="http://www.w3.org/2000/svg" width="15.314" height="15.313" viewBox="0 0 15.314 15.313">
    <g transform="translate(0 -0.008)">
        <g transform="translate(0 0.008)">
            <g transform="translate(0 0)">
                <path
                    d="M7.657.008a7.656,7.656,0,1,0,7.657,7.656A7.665,7.665,0,0,0,7.657.008Zm0,13.921a6.264,6.264,0,1,1,6.265-6.264A6.272,6.272,0,0,1,7.657,13.929Z"
                    transform="translate(0 -0.008)" fill="#7d55c7" />
                <path
                    d="M150.7,130.008a.7.7,0,0,0-.7.7v4.64a.7.7,0,1,0,1.392,0V130.7A.7.7,0,0,0,150.7,130.008Z"
                    transform="translate(-143.039 -123.975)" fill="#7d55c7" />
                <path d="M150.7,70.011a.7.7,0,1,0,.492.2A.7.7,0,0,0,150.7,70.011Z"
                    transform="translate(-143.039 -66.762)" fill="#7d55c7" />
            </g>
        </g>
    </g>
</svg>
