<svg width="146" height="130" xmlns="http://www.w3.org/2000/svg">
    <defs>
        <clipPath id="clip-path">
            <rect height="152.946" width="307.746" />
        </clipPath>
    </defs>
    <g>
        <g clip-path="url(#clip-path)">
            <g>
                <path fill="#fff"
                    d="m15.23132,23.25119c17.8,-15.932 45.914,-12.951 64.416,0.184c13.242,9.4 21.486,24.731 25.3,40.616c9.581,-15.415 21.754,-29.269 37.764,-39.353c17.852,-11.244 46.293,-17.3 61.094,1.559c11.313,14.413 8.694,33.034 2.535,50.528c19.221,-16.79 39.09,-33 59.815,-48.7c7.943,-6.017 16.486,6.538 8.606,12.508c-40.838,30.939 -56.887,40.833 -92.436,77.031q-10.232,10.419 -20.161,21.1c-6.732,7.235 -18.57,-2.7 -11.855,-9.922c25.225,-27.114 41.136,-41.564 44.78,-64.273c1.708,-10.646 2.816,-19.7 -2.276,-27.356c-5.12,-7.7 -15.032,-8.848 -23.909,-7.66c-22.334,2.991 -38.2,21.9 -48.466,39.182c-17.551,29.556 -25.561,63.1 -43.031,92.681c-1.457,2.467 -2.964,5.057 -6.028,5.971a8.474,8.474 0 0 1 -7.391,-1.264a7.31,7.31 0 0 1 -3,-7.162a11.841,11.841 0 0 1 1.666,-3.69q1.493,-2.592 2.943,-5.208a295.332,295.332 0 0 0 18.5,-40.483c5.092,-13.712 9.949,-27.64 6.633,-42.278c-2.821,-12.447 -9.941,-24.27 -21,-31.889c-11.134,-7.669 -29.1,-11.674 -41.266,-3.721c-14.789,9.67 -14.113,30.815 -7.583,44.54c6.853,14.4 20.089,26.483 35.368,33.036c9.331,4 2.078,17.243 -7.207,13.261c-37.272,-15.995 -68.925,-67.815 -33.811,-99.238z" />
                <path fill="#fff"
                    d="m121.85833,10.70519l0,0c-0.373,5.55 -6,17.454 -11.94,17.1l0,0c-5.936,-0.349 -9.928,-12.817 -9.556,-18.367l0,0c0.373,-5.55 5.487,-9.767 11.423,-9.418l0,0c5.936,0.354 10.443,5.135 10.073,10.685z" />
            </g>
        </g>
    </g>
</svg>