<svg xmlns="http://www.w3.org/2000/svg" width="13.81" height="18.061" viewBox="0 0 13.81 18.061">
    <g transform="translate(-70.15 -10.75)">
        <g transform="translate(70.4 11)">
            <path
                d="M82.556,17.677h-.645V15.863a4.86,4.86,0,1,0-9.719,0v1.813H71.55a1.152,1.152,0,0,0-1.15,1.15V27.41a1.152,1.152,0,0,0,1.15,1.15H82.56a1.152,1.152,0,0,0,1.15-1.15V18.823a1.156,1.156,0,0,0-1.154-1.147Zm-8.9-1.817a3.4,3.4,0,0,1,6.795,0v1.81H73.654ZM82.241,27.1H71.862v-7.96H82.244V27.1Z"
                transform="translate(-70.4 -11)" fill="#372ace" stroke="#fff" stroke-width="0.5" />
            <path
                d="M236.331,339.647a.73.73,0,0,0,.731-.731v-1.885a.731.731,0,1,0-1.462,0v1.885A.732.732,0,0,0,236.331,339.647Z"
                transform="translate(-229.68 -324.642)" fill="#372ace" stroke="#fff"
                stroke-width="0.5" />
        </g>
    </g>
</svg>
