<svg xmlns="http://www.w3.org/2000/svg" width="19.78" height="16.037" viewBox="0 0 19.78 16.037">
    <g transform="translate(-21.174)">
        <g transform="translate(21.174 0)">
            <path
                d="M35.808,25.558c-2.454,2.841-4.907,5.65-7.361,8.491-.549.613-1.1,1.259-1.647,1.873l-.646.646c-.452-.517-1.291-1.1-1.614-1.453q-1.017-1.065-2.034-2.228c-1.647-1.873-4.358.872-2.744,2.744a27.33,27.33,0,0,0,4.714,4.746c1.937,1.291,3.325.226,4.617-1.291,3.2-3.584,6.328-7.167,9.46-10.783C40.166,26.43,37.454,23.653,35.808,25.558Z"
                transform="translate(-19.267 -24.918)" fill="#fff" />
        </g>
    </g>
</svg>
