<svg xmlns="http://www.w3.org/2000/svg" width="90" height="89" viewBox="0 0 90 89">
    <g transform="translate(0.194 -0.403)">
        <rect width="90" height="89" rx="28" transform="translate(-0.194 0.403)" fill="#c75555"
            opacity="0.1" />
        <g transform="translate(19.927 21.461)">
            <g transform="translate(0 0.07)">
                <g transform="translate(0 0)">
                    <path
                        d="M39.919,6.907a23.372,23.372,0,1,0,0,33.069A23.414,23.414,0,0,0,39.919,6.907ZM37.358,37.415a19.762,19.762,0,1,1,0-27.947A19.785,19.785,0,0,1,37.358,37.415Z"
                        transform="translate(0 -0.07)" fill="#c75555" />
                </g>
            </g>
            <g transform="translate(15.272 15.114)">
                <g>
                    <path
                        d="M183.153,178.147l-5.128-5.121,5.128-5.121a1.812,1.812,0,0,0-2.561-2.563l-5.131,5.124-5.131-5.124a1.812,1.812,0,1,0-2.561,2.563l5.128,5.121-5.128,5.121a1.812,1.812,0,0,0,2.561,2.563l5.131-5.124,5.131,5.124a1.812,1.812,0,1,0,2.561-2.563Z"
                        transform="translate(-167.236 -164.813)" fill="#c75555" />
                </g>
            </g>
        </g>
    </g>
</svg>
