<svg xmlns="http://www.w3.org/2000/svg" width="28" height="28" viewBox="0 0 28 28">
    <g transform="translate(0.312)">
        <rect width="28" height="28" transform="translate(-0.312)" fill="none" />
        <path
            d="M19.333,26.266a1.644,1.644,0,0,1-1.182-.49l-8.41-8.41a1.644,1.644,0,0,1-.49-1.182V10.923A1.673,1.673,0,0,1,10.923,9.25h5.261a1.644,1.644,0,0,1,1.182.49l8.41,8.41h0a1.673,1.673,0,0,1,0,2.365l-5.261,5.261A1.661,1.661,0,0,1,19.333,26.266Zm-8.41-16.151a.808.808,0,0,0-.808.808v5.261a.813.813,0,0,0,.236.577l8.41,8.4a.8.8,0,0,0,1.154,0L25.176,19.9a.8.8,0,0,0,0-1.154l-8.422-8.4a.8.8,0,0,0-.577-.236Z"
            transform="translate(-3.914 -3.914)" fill="#7d55c7" />
        <circle cx="0.865" cy="0.865" r="0.865" transform="translate(8.41 8.41)" fill="#7d55c7" />
    </g>
</svg>
