<svg xmlns="http://www.w3.org/2000/svg" width="21.236" height="20.176" viewBox="0 0 21.236 20.176">
    <g transform="translate(0 -3.162)">
        <path
            d="M20.312,10.041l-5.848-.553a1.011,1.011,0,0,1-.838-.62L11.531,3.79a1,1,0,0,0-1.86,0L7.593,8.868a.99.99,0,0,1-.838.62l-5.848.553A1.011,1.011,0,0,0,.338,11.8l4.407,3.871a1,1,0,0,1,.318.989L3.739,22.089a1.011,1.011,0,0,0,1.491,1.106l4.876-2.866a1.014,1.014,0,0,1,1.022,0l4.876,2.866A1.008,1.008,0,0,0,17.5,22.089L16.19,16.66a1,1,0,0,1,.318-.989L20.915,11.8A1.023,1.023,0,0,0,20.312,10.041Z"
            transform="translate(0 0)" fill="#ffffff" />
    </g>
</svg>
