<svg xmlns="http://www.w3.org/2000/svg" width="17.97" height="20.4" viewBox="0 0 17.97 20.4">
    <g transform="translate(-30.5)">
        <path
            d="M32.891,0H31.7V14.424H30.5V18.01h1.2V20.4h1.2V18.01h1.2V14.424h-1.2Zm0,16.814H31.7v-1.2h1.2Z"
            fill="#ffffff" />
        <path
            d="M395.086,14.424h-1.2V0h-1.2V14.424h-1.2V18.01h1.2V20.4h1.2V18.01h1.2Zm-1.2,2.391h-1.2v-1.2h1.2Z"
            transform="translate(-346.616)" fill="#ffffff" />
        <path
            d="M273.891,0h-1.2V8.845h-1.2v3.586h1.2V20.4h1.2V12.431h1.2V8.845h-1.2Zm0,11.236h-1.2v-1.2h1.2Z"
            transform="translate(-231.397)" fill="#ffffff" />
        <path
            d="M152.891,0h-1.2V2.138h-1.2V5.724h1.2V20.4h1.2V5.724h1.2V2.138h-1.2Zm0,4.528h-1.2v-1.2h1.2Z"
            transform="translate(-115.219)" fill="#ffffff" />
    </g>
</svg>
