<svg xmlns="http://www.w3.org/2000/svg" width="16.854" height="16.854" viewBox="0 0 16.854 16.854">
    <path
        d="M11.507,5.348a5.761,5.761,0,1,0-6.16,6.16,5.76,5.76,0,1,0,6.16-6.16ZM.988,5.761a4.774,4.774,0,0,1,9.531-.4A5.736,5.736,0,0,0,7.4,6.677L6.262,3.267a.494.494,0,0,0-.937,0l-1.58,4.74a.494.494,0,1,0,.937.312L4.92,7.6H6.513a5.73,5.73,0,0,0-1.152,2.915A4.775,4.775,0,0,1,.988,5.761Zm5.35.856H5.25l.544-1.632Zm4.756,9.25a4.773,4.773,0,1,1,4.773-4.773A4.778,4.778,0,0,1,11.093,15.866Z"
        fill="#28a5bc" />
    <path
        d="M258.81,265h-1.317a.494.494,0,1,0,0,.987h.8a4.361,4.361,0,0,1-1.106,2.807.494.494,0,1,0,.617.771c1.485-1.188,1.5-3.955,1.5-4.072A.494.494,0,0,0,258.81,265Z"
        transform="translate(-248.54 -256.277)" fill="#28a5bc" />
    <path
        d="M354.547,250.843h-.56v-1.35a.494.494,0,0,0-.988,0v4.74a.494.494,0,0,0,.988,0v-2.4h.56a.494.494,0,1,0,0-.988Z"
        transform="translate(-341.38 -240.804)" fill="#28a5bc" />
</svg>
