<svg xmlns="http://www.w3.org/2000/svg" width="12.117" height="15.313" viewBox="0 0 12.117 15.313">
    <g transform="translate(0 -0.008)">
        <path
            d="M5.1,15.321a1.315,1.315,0,0,1-.4-.059L.869,13.982A1.288,1.288,0,0,1,0,12.769V1.284A1.277,1.277,0,0,1,1.276.008a1.316,1.316,0,0,1,.4.059l3.84,1.279A1.288,1.288,0,0,1,6.381,2.56V14.045A1.277,1.277,0,0,1,5.1,15.321ZM1.276.965a.32.32,0,0,0-.319.319V12.769a.332.332,0,0,0,.221.307L5,14.35a.347.347,0,0,0,.1.014.32.32,0,0,0,.319-.319V2.56A.332.332,0,0,0,5.2,2.252L1.38.979A.346.346,0,0,0,1.276.965Zm0,0"
            transform="translate(0)" fill="#693" />
        <path
            d="M35.6,5.112a.479.479,0,0,1-.479-.479V1.763a.8.8,0,0,0-.8-.8H27.147a.479.479,0,1,1,0-.957h7.178a1.756,1.756,0,0,1,1.755,1.755V4.634A.479.479,0,0,1,35.6,5.112Zm0,0"
            transform="translate(-25.87 0)" fill="#693" />
        <path
            d="M184.363,282.444h-2.552a.479.479,0,0,1,0-.957h2.552a.8.8,0,0,0,.8-.8v-2.871a.479.479,0,1,1,.957,0v2.871A1.756,1.756,0,0,1,184.363,282.444Zm0,0"
            transform="translate(-175.909 -269.037)" fill="#693" />
        <g transform="translate(42.117 140.665) rotate(180)">
            <g transform="translate(30 132)">
                <path
                    d="M35.592,133.524h0l-1.807-1.443a.409.409,0,0,0-.489,0,.241.241,0,0,0,0,.392l1.213.969H30.346a.284.284,0,1,0,0,.555H34.51l-1.213.969a.241.241,0,0,0,0,.392.409.409,0,0,0,.489,0l1.807-1.443h0A.241.241,0,0,0,35.592,133.524Z"
                    transform="translate(-30 -132)" fill="#693" />
            </g>
        </g>
    </g>
</svg>
