<svg xmlns="http://www.w3.org/2000/svg" width="85.521" height="130.013"
    viewBox="0 0 85.521 130.013">
    <defs>
        <linearGradient id="linear-gradient" x1="0.14" y1="0.846" x2="0.802" y2="0.037">
            <stop offset="0" stop-color="#8bd3e6" />
            <stop offset="0.834" stop-color="#7d55c7" />
        </linearGradient>
    </defs>

    <g transform="translate(-63.627 -76.767)">
        <path
            d="M155.009,132.595c.121-7.357-6.278-12.868-13.109-14.072-4.889-.862-10.152.658-14.648,3.267a37.518,37.518,0,0,0,1.561-16.81c-.987-6.35-5.336-13.894-12.757-13.046-5.671.648-9.5,5.261-12.353,10.405.036-7.853-.2-15.722-.721-23.668-.2-3.045-4.875-2.193-4.676.828,1.034,15.657,1.972,21.32.7,36.959q-.365,4.5-.853,8.993c-.33,3.044,4.4,3.482,4.729.445,1.236-11.408,1.394-18.028,5.976-23.752,2.148-2.683,4.045-4.89,6.871-5.435,2.842-.548,5.122,1.374,6.644,3.576,3.829,5.542,2.618,13.119.65,19.117-3.365,10.256-9.6,19.287-12.986,29.531a3.451,3.451,0,0,0-.176,2.616,2.413,2.413,0,0,0,4.081.448,3.908,3.908,0,0,0,.527-1.165q.3-.89.623-1.774a97.571,97.571,0,0,1,5.732-12.835c2.18-4.09,4.458-8.175,8.56-10.624a16.961,16.961,0,0,1,11.731-2.316c4.056.776,8.638,3.843,9.242,8.233.734,5.337-4.357,9.776-8.9,11.323a21.576,21.576,0,0,1-14.914-.582c-2.83-1.176-4.462,3.285-1.645,4.456C136.208,151.41,154.769,147.1,155.009,132.595Z"
            transform="translate(-20.186)" fill="url(#linear-gradient)" />
        <path
            d="M187.241,147.031h0c-1.224,1.285-2.871,5.1-1.586,6.326h0c1.286,1.224,5.017-.606,6.242-1.891h0a3.215,3.215,0,0,0-.11-4.545h0A3.215,3.215,0,0,0,187.241,147.031Z"
            transform="translate(-71.106 -40.517)" fill="#8bd3e6" />
        <g transform="translate(63.627 163.041)">
            <path
                d="M73.287,289.92a5.2,5.2,0,0,0-3.926,1.921l1.384-7.214h-3.34l-3.778,19.768h3.34l1.475-7.877c.473-2.422,2-3.508,3.7-3.508a2.87,2.87,0,0,1,3.2,3.035,5.68,5.68,0,0,1-.111,1.141L73.9,304.395h3.368l1.282-6.958a10.241,10.241,0,0,0,.195-1.921A5.254,5.254,0,0,0,73.287,289.92Z"
                transform="translate(-63.627 -284.627)" fill="#878787" />
            <path
                d="M118.627,307.53h-3.591a3.824,3.824,0,0,1-3.174,1.308c-2.227,0-3.675-1.058-3.9-3.062H119.3l.083-.474a7.635,7.635,0,0,0,.168-1.587c0-3.9-3.062-6.347-6.876-6.347a7.957,7.957,0,0,0-8.128,7.934c0,3.981,2.9,6.541,6.9,6.541A7.764,7.764,0,0,0,118.627,307.53Zm-6.235-7.154a3.455,3.455,0,0,1,3.73,2.756h-7.794A4.226,4.226,0,0,1,112.392,300.376Z"
                transform="translate(-87.56 -292.08)" fill="#878787" />
            <path
                d="M150.015,311.844a5.567,5.567,0,0,0,4.844-2.617l-.559,2.62h3.063l1.31-6.406a8.689,8.689,0,0,0,.168-1.67c0-3.98-2.979-6.4-6.821-6.4a8.11,8.11,0,0,0-8.239,8.129A6.072,6.072,0,0,0,150.015,311.844Zm1.81-11.386a3.377,3.377,0,0,1,3.647,3.591,4.538,4.538,0,0,1-4.537,4.7,3.477,3.477,0,0,1-3.7-3.7A4.477,4.477,0,0,1,151.825,300.459Z"
                transform="translate(-110.512 -292.08)" fill="#878787" />
            <path d="M186.436,284.627h-3.312l-3.842,19.764h0l-3.559,18.482h3.312l3.952-20.521h0Z"
                transform="translate(-129.199 -284.627)" fill="#878787" />
            <path
                d="M207.584,304.391c3.09,0,5.261-1.587,5.957-5.066l.167-.947h-3.34l-.111.613c-.335,1.67-1.225,2.31-2.505,2.31a1.9,1.9,0,0,1-2.143-2,4.106,4.106,0,0,1,.083-.751l1.031-5.262h7.07l.584-3.006H207.3l1.187-5.651h-3.34l-2.745,13.612a8.114,8.114,0,0,0-.139,1.5C202.267,302.777,204.466,304.391,207.584,304.391Z"
                transform="translate(-144.723 -284.627)" fill="#878787" />
            <path
                d="M242.914,290.277a5.2,5.2,0,0,0-3.925,1.921l1.448-7.572H237.1l-3.842,19.764h3.34l1.475-7.516c.473-2.421,2-3.508,3.7-3.508a2.87,2.87,0,0,1,3.2,3.035,5.684,5.684,0,0,1-.111,1.141l-1.336,6.848H246.9l1.28-6.6a10.245,10.245,0,0,0,.195-1.921A5.254,5.254,0,0,0,242.914,290.277Z"
                transform="translate(-162.849 -284.627)" fill="#878787" />
            <path
                d="M141.653,342.022a7.77,7.77,0,0,0-7.905,6.6l-2.617,13.314H134.5l1.642-8.294a4.83,4.83,0,0,0,4.788,2.8,7.774,7.774,0,0,0,7.683-7.9C148.612,344.408,145.55,342.022,141.653,342.022Zm-.974,11.345A3.464,3.464,0,0,1,137,349.678a4.472,4.472,0,0,1,4.538-4.576,3.434,3.434,0,0,1,3.674,3.633A4.5,4.5,0,0,1,140.679,353.367Z"
                transform="translate(-103.112 -318.2)" fill="#878787" />
            <path
                d="M204.9,349.752c-.472,2.473-1.837,3.554-3.758,3.554a2.816,2.816,0,0,1-3.09-3.07,6.729,6.729,0,0,1,.112-1.165l1.336-7.022H196.13l-1.28,6.68a10.22,10.22,0,0,0-.2,1.905c0,3.809,2.728,5.827,6.319,5.827,3.7,0,6.4-2.16,7.21-6.4l1.531-8.016h-3.34Z"
                transform="translate(-140.27 -318.215)" fill="#878787" />
            <path
                d="M238.314,344.931c1.531,0,2.255.61,2.311,1.414h3.312c0-2.689-2.283-4.3-5.567-4.3-3.257,0-5.567,1.552-5.567,4.684,0,2.717,2.45,3.354,4.482,3.881,1.28.332,2.505.609,2.505,1.663,0,.8-.752,1.33-2.311,1.33-1.781,0-2.728-.638-2.728-1.552h-3.34c0,2.828,2.367,4.407,5.93,4.407,3.423,0,5.79-1.441,5.79-4.573,0-2.771-2.617-3.492-4.454-3.963-1.448-.361-2.533-.665-2.533-1.636C236.144,345.485,236.9,344.931,238.314,344.931Z"
                transform="translate(-161.771 -318.215)" fill="#878787" />
            <path
                d="M257.847,285.021l.331,1.086h.358l.33-1.086v1.086h.366v-1.48h-.593l-.279.939-.282-.939h-.589v1.48h.358Z"
                transform="translate(-177.025 -284.627)" fill="#878787" />
            <path d="M254.418,286.107h.366v-1.146h.422v-.334H254v.334h.418Z"
                transform="translate(-174.984 -284.627)" fill="#878787" />
        </g>
    </g>
</svg>
