<svg xmlns="http://www.w3.org/2000/svg" width="15.314" height="15.313" viewBox="0 0 15.314 15.313">
    <g transform="translate(0 -0.008)">
        <path d="M283.872,208.965h-6.062a.479.479,0,1,1,0-.957h6.062a.479.479,0,1,1,0,.957Zm0,0"
            transform="translate(-269.037 -201.779)" fill="#e22356" />
        <path
            d="M400.482,133.713a.479.479,0,0,1-.338-.817l2.055-2.054-2.055-2.055a.479.479,0,0,1,.677-.677l2.393,2.393a.479.479,0,0,1,0,.677l-2.393,2.393A.475.475,0,0,1,400.482,133.713Zm0,0"
            transform="translate(-388.04 -124.135)" fill="#e22356" />
        <path
            d="M5.1,15.321a1.315,1.315,0,0,1-.4-.059L.869,13.982A1.288,1.288,0,0,1,0,12.769V1.284A1.277,1.277,0,0,1,1.276.008a1.316,1.316,0,0,1,.4.059l3.84,1.279A1.288,1.288,0,0,1,6.381,2.56V14.045A1.277,1.277,0,0,1,5.1,15.321ZM1.276.965a.32.32,0,0,0-.319.319V12.769a.332.332,0,0,0,.221.307L5,14.35a.347.347,0,0,0,.1.014.32.32,0,0,0,.319-.319V2.56A.332.332,0,0,0,5.2,2.252L1.38.979A.346.346,0,0,0,1.276.965Zm0,0"
            transform="translate(0)" fill="#e22356" />
        <path
            d="M35.6,5.112a.479.479,0,0,1-.479-.479V1.763a.8.8,0,0,0-.8-.8H27.147a.479.479,0,1,1,0-.957h7.178a1.756,1.756,0,0,1,1.755,1.755V4.634A.479.479,0,0,1,35.6,5.112Zm0,0"
            transform="translate(-25.87 0)" fill="#e22356" />
        <path
            d="M184.363,282.444h-2.552a.479.479,0,0,1,0-.957h2.552a.8.8,0,0,0,.8-.8v-2.871a.479.479,0,1,1,.957,0v2.871A1.756,1.756,0,0,1,184.363,282.444Zm0,0"
            transform="translate(-175.909 -269.037)" fill="#e22356" />
    </g>
</svg>
