<svg xmlns="http://www.w3.org/2000/svg" width="30.619" height="41" viewBox="0 0 30.619 41">
    <defs>
        <linearGradient id="linear-gradient" x1="0.14" y1="0.846" x2="0.802" y2="0.037">
            <stop offset="0" stop-color="#8bd3e6" />
            <stop offset="0.834" stop-color="#7d55c7" />
        </linearGradient>
    </defs>

    <g transform="translate(-94.324 -94)">
        <path
            d="M128.755,106.823c.065-3.961-3.38-6.928-7.057-7.576a11.986,11.986,0,0,0-7.886,1.759,20.2,20.2,0,0,0,.84-9.05c-.531-3.418-2.873-7.48-6.868-7.023-3.053.349-5.116,2.833-6.65,5.6.019-4.228-.105-8.465-.388-12.742-.108-1.64-2.625-1.181-2.517.446.557,8.429,1.061,11.478.377,19.9q-.2,2.424-.459,4.841a1.279,1.279,0,0,0,2.546.239c.665-6.141.751-9.706,3.217-12.787,1.156-1.444,2.178-2.633,3.7-2.926s2.758.74,3.577,1.925c2.062,2.984,1.41,7.063.35,10.292-1.812,5.522-5.168,10.383-6.991,15.9a1.858,1.858,0,0,0-.095,1.408,1.3,1.3,0,0,0,2.2.241,2.1,2.1,0,0,0,.284-.627q.164-.479.335-.955a52.528,52.528,0,0,1,3.086-6.91c1.174-2.2,2.4-4.4,4.609-5.72a9.131,9.131,0,0,1,6.316-1.247c2.183.418,4.65,2.069,4.975,4.432.4,2.873-2.346,5.263-4.79,6.1a11.616,11.616,0,0,1-8.029-.314c-1.524-.633-2.4,1.769-.886,2.4C118.633,116.952,128.626,114.634,128.755,106.823Z"
            transform="translate(-3.813 17.233)" fill="url(#linear-gradient)" />
        <path
            d="M186.293,146.57h0c-.659.692-1.546,2.746-.854,3.406h0c.692.659,2.7-.326,3.36-1.018h0a1.731,1.731,0,0,0-.059-2.447h0A1.731,1.731,0,0,0,186.293,146.57Z"
            transform="translate(-71.412 -36.555)" fill="#8bd3e6" />
    </g>
</svg>
