<svg xmlns="http://www.w3.org/2000/svg" width="18.747" height="11.717" viewBox="0 0 18.747 11.717">
    <path
        d="M28.546,25.895V15.349a.579.579,0,0,0-.52-.572l-.015,0a.5.5,0,0,0-.052-.011H10.384a.536.536,0,0,0-.053.011.647.647,0,0,0-.218.064.568.568,0,0,0-.086.058.578.578,0,0,0-.088.085c-.011.013-.026.021-.036.035s-.013.035-.022.052a.569.569,0,0,0-.07.224c0,.019-.011.036-.011.056V25.894a.585.585,0,0,0,.586.586H27.961A.585.585,0,0,0,28.546,25.895Zm-2.517-9.96-6.881,4.741-6.881-4.741ZM10.97,25.309V16.464l7.846,5.406a.584.584,0,0,0,.664,0l7.894-5.439v8.878Z"
        transform="translate(-9.799 -14.763)" fill="#ffffff" />
</svg>
