<svg xmlns="http://www.w3.org/2000/svg" width="27" height="27" viewBox="0 0 27 27">
    <g transform="translate(15.188)">
        <g>
            <path
                d="M293.906,0A5.913,5.913,0,0,0,288,5.906c0,3.031,4.738,8.4,5.279,9a.843.843,0,0,0,1.255,0c.54-.6,5.279-5.97,5.279-9A5.913,5.913,0,0,0,293.906,0Zm0,8.438a2.531,2.531,0,1,1,2.531-2.531A2.532,2.532,0,0,1,293.906,8.438Z"
                transform="translate(-288)" fill="#fff" />
        </g>
    </g>
    <g transform="translate(0 6.75)">
        <g>
            <path
                d="M.53,131.162a.846.846,0,0,0-.53.785v15.459a.843.843,0,0,0,1.158.783l7.28-2.913V128Z"
                transform="translate(0 -128)" fill="#fff" />
        </g>
    </g>
    <g transform="translate(18.563 10.65)">
        <g>
            <path
                d="M356.414,207.337a2.53,2.53,0,0,1-3.766,0c-.172-.191-.393-.442-.648-.741V218.3l7.908-3.162a.842.842,0,0,0,.53-.783v-12.4A36.662,36.662,0,0,1,356.414,207.337Z"
                transform="translate(-352 -201.952)" fill="#fff" />
        </g>
    </g>
    <g transform="translate(10.125 6.75)">
        <g>
            <path
                d="M195.907,129.563,192,128v17.277l6.75,2.7V134.426A21.969,21.969,0,0,1,195.907,129.563Z"
                transform="translate(-192 -128)" fill="#fff" />
        </g>
    </g>
</svg>
