<svg xmlns="http://www.w3.org/2000/svg" width="16.064" height="19.276" viewBox="0 0 16.064 19.276">
    <path
        d="M15.565,13.584a5.38,5.38,0,0,1-1.911-4.116V7.229A5.627,5.627,0,0,0,8.835,1.671V.8A.8.8,0,0,0,7.229.8v.868A5.626,5.626,0,0,0,2.41,7.229V9.468A5.385,5.385,0,0,1,.491,13.591a1.405,1.405,0,0,0,.914,2.473H14.658a1.405,1.405,0,0,0,.907-2.479Zm0,0"
        fill="#ffffff" />
    <path d="M137.9,450.41a3.017,3.017,0,0,0,2.951-2.41h-5.9A3.017,3.017,0,0,0,137.9,450.41Zm0,0"
        transform="translate(-129.872 -431.133)" fill="#ffffff" />
</svg>
