<svg xmlns="http://www.w3.org/2000/svg" width="36" height="36" viewBox="0 0 36 36">
    <g transform="translate(-327.687 -457)">
        <rect width="36" height="36" rx="10" transform="translate(327.687 457)" fill="#7d55c7" />
        <g transform="translate(338.118 466.589)">
            <path
                d="M37.565,11a.435.435,0,0,1-.434-.436V7.486A5.439,5.439,0,0,0,33.337,2.3a1.708,1.708,0,1,0-3.217,0,5.439,5.439,0,0,0-3.792,5.186v3.081a.435.435,0,0,1-.434.436,1.744,1.744,0,0,0,0,3.488H29.94a1.881,1.881,0,0,0-.06.47,1.849,1.849,0,1,0,3.7,0,1.88,1.88,0,0,0-.06-.47h4.046a1.744,1.744,0,0,0,0-3.488ZM31.006,1.719a.724.724,0,1,1,1.346.371,5.357,5.357,0,0,0-1.244,0A.726.726,0,0,1,31.006,1.719Zm1.588,13.243A.864.864,0,1,1,31,14.491h1.454A.866.866,0,0,1,32.594,14.961ZM37.565,13.5H25.894a.753.753,0,0,1,0-1.507,1.424,1.424,0,0,0,1.419-1.427V7.486a4.417,4.417,0,1,1,8.833,0v3.081a1.424,1.424,0,0,0,1.419,1.427.753.753,0,0,1,0,1.507Z"
                transform="translate(-24.16 0)" fill="#fff" />
        </g>
    </g>
</svg>
