<svg xmlns="http://www.w3.org/2000/svg" width="25.263" height="20" viewBox="0 0 25.263 20">
    <g transform="translate(0 -3)">
        <path
            d="M18.918,3.057,5.9,8.263H2.368A2.372,2.372,0,0,0,0,10.632v2.895a2.15,2.15,0,0,0,2.368,2.105h.895l.956,6.69A.789.789,0,0,0,5,23H8.158a.789.789,0,0,0,.785-.878L8.322,16.6l10.595,4.238A.789.789,0,0,0,20,20.105V3.789a.788.788,0,0,0-1.082-.733Z"
            transform="translate(0 0)" fill="#ffffff" />
        <path
            d="M21.283,9.512l2.632-2.105a.79.79,0,0,0-.987-1.234L20.3,8.278a.79.79,0,0,0,.987,1.234Z"
            transform="translate(1.052 0.158)" fill="#ffffff" />
        <path d="M21.283,14.673a.79.79,0,1,0-.987,1.234l2.632,2.105a.79.79,0,1,0,.987-1.234Z"
            transform="translate(1.052 0.605)" fill="#ffffff" />
        <path d="M23.421,11.25H20.789a.789.789,0,1,0,0,1.579h2.632a.789.789,0,0,0,0-1.579Z"
            transform="translate(1.052 0.434)" fill="#ffffff" />
    </g>
</svg>
