<svg xmlns="http://www.w3.org/2000/svg" width="20.149" height="27.554" viewBox="0 0 20.149 27.554">
    <path
        d="M4.995,18.316a24.016,24.016,0,0,0,7.137,7.616,9.082,9.082,0,0,0,3.994,1.61c.1.006.189.011.285.011a2.984,2.984,0,0,0,2.565-1.5.125.125,0,0,0,.017-.029,13.744,13.744,0,0,1,.809-1.142c.2-.257.4-.525.591-.8a3.468,3.468,0,0,0-.008-4.105l-2.519-3.431a1.863,1.863,0,0,0-1.475-.925,1.914,1.914,0,0,0-1.492.919l-1.5,2.044c-.138-.108-.281-.206-.415-.3a4.981,4.981,0,0,1-.461-.343,19.007,19.007,0,0,1-3.793-4.7,13.782,13.782,0,0,1-1.282-2.786c.394-.485.763-.993,1.119-1.49.126-.177.256-.354.386-.531a3.384,3.384,0,0,0,0-4.111L7.7,2.621c-.147-.2-.285-.394-.427-.594C7,1.639,6.709,1.239,6.424.879A1.881,1.881,0,0,0,4.949,0,1.931,1.931,0,0,0,3.457.885L1.889,3.02A5.189,5.189,0,0,0,.93,5.829,14.046,14.046,0,0,0,1.512,10.4,29.77,29.77,0,0,0,4.995,18.316ZM1.952,5.949a3.569,3.569,0,0,1,.666-1.941L4.177,1.884A1.028,1.028,0,0,1,4.949,1.4a.989.989,0,0,1,.754.5c.281.354.545.725.83,1.119.142.2.289.4.436.605l1.249,1.7a1.811,1.811,0,0,1,.394,1.068,1.811,1.811,0,0,1-.394,1.068c-.13.177-.26.36-.39.537-.39.537-.754,1.045-1.157,1.53l-.021.029a1.419,1.419,0,0,0-.21,1.267c0,.017.008.029.013.046a14.957,14.957,0,0,0,1.471,3.26,20.064,20.064,0,0,0,4.04,5.013,5.761,5.761,0,0,0,.553.411,4.98,4.98,0,0,1,.461.343c.017.011.029.023.046.034a.7.7,0,0,0,.407.143.831.831,0,0,0,.624-.388l1.567-2.135a1.026,1.026,0,0,1,.767-.508,1,1,0,0,1,.742.508l2.527,3.437a1.713,1.713,0,0,1-.013,2.152c-.176.257-.36.5-.557.759-.293.388-.6.788-.876,1.239a2.07,2.07,0,0,1-1.8,1.039c-.071,0-.147-.006-.218-.011a8.263,8.263,0,0,1-3.613-1.473,22.816,22.816,0,0,1-6.793-7.251A28.476,28.476,0,0,1,2.48,9.929,12.225,12.225,0,0,1,1.952,5.949Z"
        transform="translate(-0.912 0)" fill="#fff" />
</svg>
