<svg xmlns="http://www.w3.org/2000/svg" width="16.46" height="19.292" viewBox="0 0 16.46 19.292">
    <g transform="translate(0.365 0.446)">
        <path
            d="M123.961,158.457a3.52,3.52,0,1,0,3.519,3.519A3.523,3.523,0,0,0,123.961,158.457Zm2.09,2.857-2.521,2.521a.542.542,0,0,1-.767,0l-.964-.964a.542.542,0,0,1,.766-.766l.58.58,2.138-2.138a.542.542,0,1,1,.766.766Zm0,0"
            transform="translate(-116.096 -152.741)" fill="none" stroke="#55b1c7"
            stroke-width="0.75" />
        <path
            d="M15.712,5.011V5c-.008-.177-.013-.365-.017-.574A1.958,1.958,0,0,0,13.851,2.5,7.6,7.6,0,0,1,8.681.325L8.669.314a1.182,1.182,0,0,0-1.607,0L7.05.325A7.6,7.6,0,0,1,1.879,2.5,1.958,1.958,0,0,0,.036,4.423c0,.207-.009.4-.017.574V5.03a20.019,20.019,0,0,0,.809,7.307,9.3,9.3,0,0,0,2.232,3.476A11.674,11.674,0,0,0,7.426,18.4a1.35,1.35,0,0,0,.179.049,1.322,1.322,0,0,0,.52,0A1.352,1.352,0,0,0,8.3,18.4a11.681,11.681,0,0,0,4.362-2.585A9.316,9.316,0,0,0,14.9,12.335,20.05,20.05,0,0,0,15.712,5.011ZM7.865,13.839a4.6,4.6,0,1,1,4.6-4.6A4.609,4.609,0,0,1,7.865,13.839Zm0,0"
            transform="translate(0)" fill="none" stroke="#55b1c7" stroke-width="0.75" />
    </g>
</svg>
