<svg xmlns="http://www.w3.org/2000/svg" width="13.164" height="19.485" viewBox="0 0 13.164 19.485">
    <path
        d="M90.9,16.867v1.876a.318.318,0,1,1-.635,0V16.867a2.642,2.642,0,0,0-2.643-2.643,1.95,1.95,0,0,1-1.678-.942.318.318,0,1,1,.543-.33,1.319,1.319,0,0,0,1.135.637A3.277,3.277,0,0,1,90.9,16.867Zm-5.543-3.184a.318.318,0,0,1-.243.378,3.04,3.04,0,0,1-2.363-.462,1.926,1.926,0,0,1-1.437.625,2.642,2.642,0,0,0-2.643,2.643v1.876a.318.318,0,1,1-.635,0V16.867a3.277,3.277,0,0,1,3.278-3.278,1.324,1.324,0,0,0,1.327-1.324v-.084A4.255,4.255,0,0,1,80.22,8.5a1.3,1.3,0,0,1-1-1.255V5.6A5.819,5.819,0,0,1,80.8,1.357C82.616-.4,85.53-.284,87.674.748a.318.318,0,0,1,.067.529,4.287,4.287,0,0,1,2.623,1.887.351.351,0,0,1,.073.25.321.321,0,0,1-.091.2,2.074,2.074,0,0,0-.6,1.465V7.247a.318.318,0,0,1-.635,0V5.08a2.7,2.7,0,0,1,.617-1.727,3.669,3.669,0,0,0-2.634-1.546l-.558-.06a.318.318,0,0,1-.087-.61l.254-.1C83.4-.119,79.859,1.162,79.859,5.6v1.65a.656.656,0,0,0,.357.581V5.769A2.226,2.226,0,0,1,82.44,3.546h4.05a2.226,2.226,0,0,1,2.223,2.223v2.6a4.254,4.254,0,0,1-5.446,4.052,1.942,1.942,0,0,1-.166.649,2.4,2.4,0,0,0,1.875.37A.318.318,0,0,1,85.354,13.683Zm-.889-1.724a3.617,3.617,0,0,0,3.613-3.613V5.769A1.59,1.59,0,0,0,86.49,4.181H82.44a1.59,1.59,0,0,0-1.588,1.588V8.345A3.617,3.617,0,0,0,84.465,11.958Zm3.216,5.474h-.953a.318.318,0,0,0,0,.635h.953a.318.318,0,0,0,0-.635Z"
        transform="translate(-77.883 0.274)" fill="#f07d28" stroke="#f07d28" stroke-width="0.3" />
</svg>
