<svg xmlns="http://www.w3.org/2000/svg" width="36" height="36" viewBox="0 0 36 36">
    <g transform="translate(-23 -178)">
        <rect width="36" height="36" rx="12" transform="translate(23 178)" fill="#fff" />
        <g transform="translate(33.661 188.661)">
            <g transform="translate(0 0)">
                <g transform="translate(0 0.006)">
                    <g>
                        <path
                            d="M35.7,37.286c.022-.03.045-.06.067-.088l-.094.121a6.725,6.725,0,0,1,1.186-1.189l-.121.094a6.648,6.648,0,0,1,1.459-.853l-.143.06a6.6,6.6,0,0,1,1.669-.453L39.568,35a6.655,6.655,0,0,1,1.739,0l-.158-.021a6.582,6.582,0,0,1,1.666.453l-.143-.06a6.568,6.568,0,0,1,1.457.85l-.121-.094a6.658,6.658,0,0,1,1.186,1.186l-.094-.121a6.568,6.568,0,0,1,.85,1.457c-.019-.048-.04-.1-.06-.143a6.582,6.582,0,0,1,.453,1.666c-.007-.052-.015-.106-.021-.158a6.666,6.666,0,0,1,0,1.74c.007-.052.015-.106.021-.158a6.582,6.582,0,0,1-.453,1.666c.019-.048.04-.1.06-.143a6.568,6.568,0,0,1-.85,1.457l.094-.121a6.658,6.658,0,0,1-1.186,1.186l.121-.094a6.568,6.568,0,0,1-1.457.85l.143-.06a6.582,6.582,0,0,1-1.666.453l.158-.021a6.666,6.666,0,0,1-1.74,0l.158.021a6.582,6.582,0,0,1-1.666-.453l.143.06a6.568,6.568,0,0,1-1.457-.85l.121.094a6.658,6.658,0,0,1-1.186-1.186l.094.121a6.568,6.568,0,0,1-.85-1.457c.019.048.04.1.06.143A6.582,6.582,0,0,1,34.53,41.6c.007.052.015.106.021.158a7.078,7.078,0,0,1-.058-.871.6.6,0,1,0-1.193,0,7.136,7.136,0,1,0,14.235-.716,7.1,7.1,0,0,0-1.374-3.539,7.163,7.163,0,0,0-1.308-1.345,7.418,7.418,0,0,0-.837-.574,7.655,7.655,0,0,0-.911-.441,7.135,7.135,0,0,0-7.725,1.582,7.678,7.678,0,0,0-.707.834.6.6,0,0,0-.06.459.609.609,0,0,0,.274.356.6.6,0,0,0,.459.06l.143-.06a.6.6,0,0,0,.213-.213Z"
                            transform="translate(-33.3 -33.752)" fill="#7d55c7" />
                    </g>
                </g>
                <g transform="translate(1.087 0)">
                    <g>
                        <path
                            d="M109.538,36.106H106.8l.6.6V33.961a.6.6,0,1,0-1.193,0V36.7a.605.605,0,0,0,.6.6h2.741a.6.6,0,0,0,0-1.193Z"
                            transform="translate(-106.2 -33.364)" fill="#7d55c7" />
                    </g>
                </g>
            </g>
        </g>
    </g>
</svg>
