<svg xmlns="http://www.w3.org/2000/svg" width="22.637" height="21.221" viewBox="0 0 22.637 21.221">
    <path
        d="M13.5,22.671l-1.648,6.9a.707.707,0,0,0,1.05.772l6.2-3.68,6.2,3.68a.707.707,0,0,0,1.05-.772l-1.648-6.9,5.471-4.636a.707.707,0,0,0-.4-1.244l-7.216-.6-2.8-6.543a.707.707,0,0,0-1.3,0L15.645,16.2l-7.214.595a.707.707,0,0,0-.4,1.244Zm2.684-5.1a.706.706,0,0,0,.592-.427L19.1,11.726l2.32,5.417a.706.706,0,0,0,.592.427l5.938.489-4.5,3.813a.705.705,0,0,0-.231.7l1.361,5.7-5.118-3.041a.7.7,0,0,0-.722,0l-5.121,3.042,1.361-5.7a.705.705,0,0,0-.231-.7l-4.5-3.813Z"
        transform="translate(-7.782 -9.224)" fill="#f89a49" />
</svg>
