<svg xmlns="http://www.w3.org/2000/svg" width="15.796" height="13.883" viewBox="0 0 15.796 13.883">
    <path
        d="M15.336,1.851h-4.2V1.388A1.39,1.39,0,0,0,9.749,0h-3.7A1.39,1.39,0,0,0,4.659,1.388v.463H.463A.464.464,0,0,0,0,2.314V12.495a1.39,1.39,0,0,0,1.388,1.388H14.408A1.39,1.39,0,0,0,15.8,12.495V2.322A.449.449,0,0,0,15.336,1.851ZM5.584,1.388A.463.463,0,0,1,6.047.926h3.7a.463.463,0,0,1,.463.463v.463H5.584Zm9.107,1.388L13.254,7.088a.462.462,0,0,1-.439.316h-2.6V6.942a.463.463,0,0,0-.463-.463h-3.7a.463.463,0,0,0-.463.463V7.4h-2.6a.462.462,0,0,1-.439-.316L1.1,2.777ZM9.286,7.4V8.33H6.51V7.4Zm5.584,5.091a.463.463,0,0,1-.463.463H1.388a.463.463,0,0,1-.463-.463V5.166l.738,2.215a1.386,1.386,0,0,0,1.317.949h2.6v.463a.463.463,0,0,0,.463.463h3.7a.463.463,0,0,0,.463-.463V8.33h2.6a1.386,1.386,0,0,0,1.317-.949l.738-2.215Zm0,0"
        fill="#de2b2b" />
</svg>
