<svg xmlns="http://www.w3.org/2000/svg" width="15.999" height="16" viewBox="0 0 15.999 16">
    <g transform="translate(-0.01)">
        <g transform="translate(0.01)">
            <g transform="translate(0)">
                <path
                    d="M7.009,0c-3.859,0-7,2.557-7,5.7A5.237,5.237,0,0,0,2.223,9.858,3.568,3.568,0,0,1,.39,11.514a.5.5,0,0,0,.1.985c.012,0,.056,0,.127,0a10.846,10.846,0,0,0,4.776-1.257,8.273,8.273,0,0,0,1.617.155c3.859,0,7-2.557,7-5.7S10.868,0,7.009,0Zm0,10.4a7.164,7.164,0,0,1-1.58-.17.5.5,0,0,0-.348.048,10.468,10.468,0,0,1-2.657.994,9.11,9.11,0,0,0,.9-1.3A.5.5,0,0,0,3.167,9.3,4.369,4.369,0,0,1,1.01,5.7c0-2.592,2.691-4.7,6-4.7s6,2.108,6,4.7S10.318,10.4,7.009,10.4Z"
                    transform="translate(-0.01)" fill="#c146ae" />
            </g>
        </g>
        <g transform="translate(4.599 7.48)">
            <g>
                <path
                    d="M157.914,246.9a3.052,3.052,0,0,1-1.646-1.373,4.872,4.872,0,0,0,2.023-3.843,4.519,4.519,0,0,0-.493-2.034.5.5,0,0,0-.895.448,3.523,3.523,0,0,1,.388,1.586,4,4,0,0,1-1.975,3.292.5.5,0,0,0-.155.673,7.107,7.107,0,0,0,.768,1.078,8.657,8.657,0,0,1-2.341-.853.5.5,0,0,0-.345-.048,6.481,6.481,0,0,1-5.53-1.277.5.5,0,0,0-.662.75,7.474,7.474,0,0,0,6.226,1.541,9.332,9.332,0,0,0,4.175,1.056c.229,0,.365-.012.387-.014a.5.5,0,0,0,.074-.982Z"
                    transform="translate(-146.882 -239.374)" fill="#c146ae" />
            </g>
        </g>
    </g>
</svg>
