<svg xmlns="http://www.w3.org/2000/svg" width="81.725" height="109.432"
    viewBox="0 0 81.725 109.432">
    <g transform="translate(-94.324 -94)" opacity="0.329">
        <path
            d="M179.86,156.989c.174-10.571-9.021-18.49-18.837-20.221-7.025-1.238-14.588.945-21.049,4.694,2.4-7.821,3.513-15.972,2.243-24.155-1.418-9.124-7.668-19.965-18.331-18.746-8.149.932-13.655,7.56-17.75,14.952.051-11.284-.281-22.592-1.036-34.01-.289-4.376-7.006-3.152-6.719,1.19,1.486,22.5,2.833,30.635,1.007,53.109q-.525,6.469-1.226,12.922c-.474,4.374,6.323,5,6.8.639,1.776-16.392,2-25.905,8.587-34.131,3.087-3.855,5.812-7.027,9.873-7.81,4.084-.788,7.36,1.974,9.547,5.139,5.5,7.963,3.762,18.852.935,27.471-4.835,14.738-13.793,27.714-18.661,42.435-.406,1.227-.839,2.509-.253,3.759a3.468,3.468,0,0,0,5.864.644,5.616,5.616,0,0,0,.757-1.675q.437-1.278.9-2.55a140.2,140.2,0,0,1,8.237-18.443c3.132-5.877,6.406-11.748,12.3-15.266a24.372,24.372,0,0,1,16.857-3.328c5.828,1.115,12.412,5.522,13.28,11.831,1.054,7.669-6.261,14.048-12.785,16.27a31,31,0,0,1-21.431-.837c-4.067-1.69-6.412,4.721-2.364,6.4C152.843,184.025,179.515,177.837,179.86,156.989Z"
            transform="translate(-3.813 17.233)" fill="#fff" />
        <path
            d="M188.138,147.467h0c-1.759,1.847-4.126,7.33-2.279,9.09h0c1.848,1.759,7.209-.87,8.969-2.717h0a4.619,4.619,0,0,0-.159-6.531h0A4.619,4.619,0,0,0,188.138,147.467Z"
            transform="translate(-38.945 -10.721)" fill="#fff" />
    </g>
</svg>
