<svg xmlns="http://www.w3.org/2000/svg" width="21.401" height="21.401" viewBox="0 0 21.401 21.401">
    <path
        d="M18.259,3.143A10.692,10.692,0,0,0,1.24,15.7L.018,20.623a.627.627,0,0,0,.759.759l4.928-1.222A10.691,10.691,0,0,0,18.259,3.143Zm-7.558,17a9.409,9.409,0,0,1-4.6-1.2.627.627,0,0,0-.458-.062l-4.155,1.03,1.03-4.155a.627.627,0,0,0-.062-.458A9.444,9.444,0,1,1,10.7,20.147Zm0,0"
        fill="#ffffff" />
    <path
        d="M119.608,113.349a5.39,5.39,0,0,0-1.4-1.09,1.747,1.747,0,0,0-2.122.307c-.263.263-.626.783-.834,1.038a7.067,7.067,0,0,1-3.459-3.459c.254-.207.775-.571,1.038-.834a1.747,1.747,0,0,0,.307-2.122,5.39,5.39,0,0,0-1.09-1.4,2.184,2.184,0,0,0-3.278.2c-.842.842-1.592,2.4-.385,5.056a13.531,13.531,0,0,0,2.433,3.532l0,0a13.523,13.523,0,0,0,3.532,2.433c1.773.806,3.674,1,5.056-.385A2.183,2.183,0,0,0,119.608,113.349Zm-1.086,2.391c-.817.817-2.045.86-3.651.13a10.593,10.593,0,0,1-5.346-5.346c-.73-1.606-.687-2.834.13-3.651.477-.477,1.025-.688,1.5-.208l.009.009c1.113,1.113,1.034,1.5.783,1.75-.223.223-.882.67-1.095.883-.5.5-.407,1.274.276,2.3a10.78,10.78,0,0,0,1.2,1.462h0a10.791,10.791,0,0,0,1.462,1.2c1.027.683,1.8.776,2.3.276.213-.213.66-.872.883-1.095.17-.17.337-.235.691-.064a4.555,4.555,0,0,1,1.06.847l.009.009C119.214,114.718,119,115.263,118.522,115.739Zm0,0"
        transform="translate(-103.249 -100.744)" fill="#ffffff" />
</svg>
